#!OML:ASF H:\LiuWeirdWalks\Patient Classification 1\Patient 1\Session 1\male.ASF
:FULLY-SPECIFIED
:DEGREES
517
root 1.33406 16.6799 19.6342 1.03685 0.283926 -9.10108
lowerback 5.39146 3.66308 6.80777
upperback -0.685473 5.42892 2.60147
thorax -3.3582 2.59185 -1.52984
lowerneck -26.3227 -0.448582 1.87121
upperneck 15.7439 -0.534354 -3.45646
head 9.22306 -0.546924 -1.59242
rclavicle -1.84513e-014 6.80837e-015
rhumerus -23.4638 -5.65368 -77.4839
rradius 33.9392
rwrist -10.1257
rhand -20.1585 -0.415989
rfingers 7.12502
rthumb 6.1868 -30.3056
lclavicle -1.84513e-014 6.80837e-015
lhumerus -43.2312 12.6141 74.2184
lradius 43.9963
lwrist 8.59349
lhand -18.2857 -1.55161
lfingers 7.12502
lthumb 7.99461 28.2772
rfemur 23.6996 3.21739 31.2649
rtibia 14.2604
rfoot -15.3304 -23.4819
rtoes -17.7281
lfemur -41.3639 1.81777 -6.86316
ltibia 33.6096
lfoot 0.288908 8.73895
ltoes -20.6111
518
root 1.37293 16.6896 19.8607 1.14933 0.410135 -8.43881
lowerback 5.32187 3.49135 6.06117
upperback -0.819 5.14624 2.38542
thorax -3.52116 2.45755 -1.32588
lowerneck -26.5123 -0.40252 1.96908
upperneck 15.9567 -0.530023 -3.3493
head 9.3293 -0.527158 -1.57443
rclavicle -2.04935e-014 1.19768e-014
rhumerus -23.9329 -6.07659 -77.6662
rradius 33.5589
rwrist -9.88706
rhand -19.8203 -0.864062
rfingers 7.12502
rthumb 6.51329 -30.7439
lclavicle -2.04935e-014 1.19768e-014
lhumerus -43.4915 13.4425 74.0344
lradius 43.1322
lwrist 9.30456
lhand -18.9646 -1.2074
lfingers 7.12502
lthumb 7.33935 28.6453
rfemur 23.7051 3.27936 30.481
rtibia 15.496
rfoot -14.9384 -23.323
rtoes -18.589
lfemur -41.5123 1.29693 -7.67329
ltibia 34.6245
lfoot 1.95301 8.15078
ltoes -19.8734
519
root 1.41087 16.6785 20.0818 1.16507 0.671824 -7.57485
lowerback 5.37039 3.20454 5.02062
upperback -0.932734 4.69587 2.12106
thorax -3.75277 2.24589 -1.00246
lowerneck -26.6404 -0.238586 2.29881
upperneck 16.0971 -0.441522 -3.29588
head 9.40175 -0.458939 -1.59822
rclavicle 4.0785e-014 2.67365e-014
rhumerus -24.4598 -6.3209 -77.984
rradius 33.2093
rwrist -9.64826
rhand -19.4496 -1.13891
rfingers 7.12502
rthumb 6.8712 -31.0074
lclavicle 4.0785e-014 2.67365e-014
lhumerus -43.6864 14.2569 73.7578
lradius 42.0545
lwrist 9.91719
lhand -19.585 -1.01444
lfingers 7.12502
lthumb 6.74044 28.8583
rfemur 23.5311 3.221 29.5008
rtibia 17.2911
rfoot -14.4947 -23.1521
rtoes -19.358
lfemur -41.7207 0.715684 -8.72436
ltibia 35.8109
lfoot 3.18239 7.58615
ltoes -18.7168
520
root 1.44698 16.6726 20.3005 1.06321 1.03425 -6.62226
lowerback 5.54446 2.8707 3.85565
upperback -1.01861 4.17564 1.84423
thorax -4.02529 2.0043 -0.617677
lowerneck -26.6794 -0.0510975 2.70143
upperneck 16.1603 -0.343836 -3.26576
head 9.43263 -0.383727 -1.63869
rclavicle -6.14369e-015 -1.97791e-014
rhumerus -25.0966 -6.49239 -78.3129
rradius 32.8916
rwrist -9.43058
rhand -19.0697 -1.20182
rfingers 7.12502
rthumb 7.23786 -31.058
lclavicle -6.14369e-015 -1.97791e-014
lhumerus -43.7939 14.9333 73.5203
lradius 40.8207
lwrist 10.4026
lhand -20.0843 -0.913386
lfingers 7.12502
lthumb 6.2584 28.9742
rfemur 23.2322 3.03225 28.4311
rtibia 19.5077
rfoot -13.8743 -22.9294
rtoes -19.9837
lfemur -41.7898 0.145915 -9.91753
ltibia 37.0681
lfoot 3.78783 7.14172
ltoes -17.2447
521
root 1.48276 16.6696 20.5172 0.855958 1.44141 -5.73616
lowerback 5.83972 2.61744 2.82585
upperback -1.05905 3.77013 1.60413
thorax -4.29613 1.82013 -0.276855
lowerneck -26.7454 -0.0302514 2.83664
upperneck 16.2092 -0.394601 -3.14485
head 9.45887 -0.383825 -1.62668
rclavicle -3.53153e-015 1.05356e-014
rhumerus -25.8806 -6.80998 -78.4215
rradius 32.6332
rwrist -9.24899
rhand -18.7072 -1.1417
rfingers 7.12502
rthumb 7.58776 -30.9856
lclavicle -3.53153e-015 1.05356e-014
lhumerus -43.6661 15.3138 73.5636
lradius 39.4074
lwrist 10.6457
lhand -20.4009 -0.925695
lfingers 7.12502
lthumb 5.95275 28.9707
rfemur 22.7588 2.71601 27.404
rtibia 22.2093
rfoot -13.112 -22.6271
rtoes -20.4377
lfemur -41.7273 -0.336133 -11.092
ltibia 38.4619
lfoot 3.74377 6.81205
ltoes -15.6435
522
root 1.51886 16.6702 20.7326 0.560096 1.81776 -5.07896
lowerback 6.19057 2.31557 2.01618
upperback -1.03416 3.3098 1.41031
thorax -4.51153 1.60708 0.000330369
lowerneck -26.8213 0.105436 3.21748
upperneck 16.1809 -0.357758 -3.13699
head 9.46172 -0.341243 -1.67986
rclavicle -1.32316e-014 -7.35503e-015
rhumerus -26.6264 -6.95858 -78.6657
rradius 32.3403
rwrist -9.09916
rhand -18.4203 -0.955397
rfingers 7.12502
rthumb 7.86472 -30.7891
lclavicle -1.32316e-014 -7.35503e-015
lhumerus -43.4271 15.6985 73.5477
lradius 37.941
lwrist 10.7017
lhand -20.4852 -0.969407
lfingers 7.12502
lthumb 5.87139 28.9292
rfemur 22.2647 2.3226 26.5816
rtibia 25.0067
rfoot -11.9714 -22.2056
rtoes -20.7105
lfemur -41.4628 -0.650395 -12.061
ltibia 39.8096
lfoot 3.2903 6.51839
ltoes -13.9858
523
root 1.55713 16.6766 20.9461 0.223687 2.11286 -4.73309
lowerback 6.55329 2.09871 1.61966
upperback -0.896997 2.99073 1.29912
thorax -4.59113 1.45705 0.126215
lowerneck -27.2629 0.151244 3.42328
upperneck 16.2814 -0.405245 -3.05382
head 9.56868 -0.341298 -1.69553
rclavicle 3.52781e-014 9.74045e-015
rhumerus -27.2437 -7.18807 -78.799
rradius 31.9908
rwrist -8.99255
rhand -18.2567 -0.65828
rfingers 7.12502
rthumb 8.02261 -30.486
lclavicle 3.52781e-014 9.74045e-015
lhumerus -42.8247 15.9404 73.7726
lradius 36.3798
lwrist 10.4435
lhand -20.3057 -1.12244
lfingers 7.12502
lthumb 6.0447 28.7713
rfemur 21.7119 1.87444 26.0241
rtibia 27.8151
rfoot -10.3897 -21.6486
rtoes -20.7222
lfemur -41.0441 -0.775035 -12.7172
ltibia 41.0469
lfoot 2.64557 6.26799
ltoes -12.4205
524
root 1.59791 16.6918 21.1579 -0.111216 2.27924 -4.62776
lowerback 6.85097 1.95378 1.54447
upperback -0.7378 2.79308 1.25813
thorax -4.59616 1.36059 0.138229
lowerneck -27.7052 0.140628 3.51449
upperneck 16.4388 -0.501248 -2.91018
head 9.69477 -0.362929 -1.67951
rclavicle 3.57067e-014 4.77083e-015
rhumerus -27.8674 -7.42669 -78.8452
rradius 31.5699
rwrist -8.88651
rhand -18.2151 -0.318874
rfingers 7.12502
rthumb 8.0627 -30.1451
lclavicle 3.57067e-014 4.77083e-015
lhumerus -42.1081 16.0603 74.1336
lradius 34.8203
lwrist 9.872
lhand -19.8494 -1.34477
lfingers 7.12502
lthumb 6.48522 28.5359
rfemur 21.0671 1.41937 25.6476
rtibia 30.5888
rfoot -8.36932 -20.9903
rtoes -20.629
lfemur -40.4879 -0.730504 -13.1092
ltibia 42.1117
lfoot 1.95742 6.12395
ltoes -11.0337
525
root 1.64108 16.7172 21.3675 -0.407479 2.28594 -4.67939
lowerback 7.05937 1.81086 1.6376
upperback -0.560381 2.61137 1.2556
thorax -4.52583 1.26913 0.0989064
lowerneck -28.2022 0.213338 3.72026
upperneck 16.689 -0.528771 -2.78165
head 9.8658 -0.345879 -1.67793
rclavicle -8.20608e-015 -1.82882e-014
rhumerus -28.3735 -7.52399 -78.9811
rradius 30.9934
rwrist -8.69676
rhand -18.2958 0.0758047
rfingers 7.12502
rthumb 7.98486 -29.7534
lclavicle -8.20608e-015 -1.82882e-014
lhumerus -41.3436 16.2518 74.4378
lradius 33.2985
lwrist 8.98869
lhand -19.1266 -1.72594
lfingers 7.12502
lthumb 7.18293 28.1322
rfemur 20.2832 1.01197 25.3712
rtibia 33.321
rfoot -5.94834 -20.2722
rtoes -20.1774
lfemur -39.8143 -0.531669 -13.3082
ltibia 42.9577
lfoot 1.25701 6.08052
ltoes -9.87138
526
root 1.68645 16.7533 21.5751 -0.634252 2.15057 -4.75861
lowerback 7.14042 1.7772 1.83242
upperback -0.443531 2.58378 1.28486
thorax -4.44297 1.2522 0.0226312
lowerneck -28.485 0.165723 3.69884
upperneck 16.9819 -0.646387 -2.56017
head 10.0152 -0.371711 -1.61964
rclavicle -1.32565e-014 1.09332e-014
rhumerus -28.9831 -7.65794 -78.9415
rradius 30.3032
rwrist -8.46359
rhand -18.4774 0.521691
rfingers 7.12502
rthumb 7.80958 -29.3141
lclavicle -1.32565e-014 1.09332e-014
lhumerus -40.6364 16.2456 74.9034
lradius 31.8676
lwrist 7.83112
lhand -18.174 -2.21114
lfingers 7.12502
lthumb 8.1024 27.6135
rfemur 19.3297 0.663892 25.0673
rtibia 36.0187
rfoot -3.1975 -19.5408
rtoes -19.2131
lfemur -39.038 -0.241396 -13.4475
ltibia 43.5543
lfoot 0.542174 6.12999
ltoes -8.98663
527
root 1.73209 16.7994 21.7795 -0.771074 1.88417 -4.75457
lowerback 7.13401 1.87071 1.99093
upperback -0.353428 2.72114 1.32454
thorax -4.33883 1.31841 -0.0375403
lowerneck -28.7696 -0.0161911 3.42912
upperneck 17.3172 -0.862905 -2.27685
head 10.1793 -0.451043 -1.51573
rclavicle -1.76297e-014 4.57205e-015
rhumerus -29.5648 -7.91093 -78.7042
rradius 29.4793
rwrist -8.11361
rhand -18.6857 0.918403
rfingers 7.12502
rthumb 7.60853 -28.9247
lclavicle -1.76297e-014 4.57205e-015
lhumerus -39.864 16.084 75.5709
lradius 30.5099
lwrist 6.41307
lhand -17.0707 -2.81212
lfingers 7.12502
lthumb 9.16712 26.9686
rfemur 18.1822 0.396661 24.6412
rtibia 38.6944
rfoot -0.201345 -18.8405
rtoes -17.4784
lfemur -38.1748 0.0909951 -13.6351
ltibia 43.8945
lfoot -0.184143 6.27148
ltoes -8.42558
528
root 1.77767 16.8543 21.9806 -0.817619 1.52354 -4.62152
lowerback 7.07632 2.03245 2.02425
upperback -0.310666 2.93797 1.35779
thorax -4.25922 1.42655 -0.0414432
lowerneck -29.0349 -0.247299 3.0588
upperneck 17.6937 -1.1046 -1.99392
head 10.3575 -0.548031 -1.40041
rclavicle 6.34682e-014 1.17283e-014
rhumerus -30.0869 -8.18952 -78.3679
rradius 28.4975
rwrist -7.6242
rhand -18.875 1.29557
rfingers 7.12502
rthumb 7.42582 -28.5541
lclavicle 6.34682e-014 1.17283e-014
lhumerus -39.1483 15.7904 76.3536
lradius 29.3398
lwrist 4.88302
lhand -15.8724 -3.40864
lfingers 7.12502
lthumb 10.3232 26.318
rfemur 16.8471 0.189294 24.0536
rtibia 41.3517
rfoot 2.98167 -18.1897
rtoes -14.7852
lfemur -37.2465 0.394052 -13.9193
ltibia 43.9852
lfoot -0.867818 6.52659
ltoes -8.12675
529
root 1.82231 16.9158 22.1777 -0.779206 1.10715 -4.36904
lowerback 6.96757 2.22156 1.92052
upperback -0.354411 3.1802 1.38131
thorax -4.24732 1.54924 0.0190867
lowerneck -29.1023 -0.500235 2.63342
upperneck 18.0661 -1.34905 -1.70481
head 10.504 -0.64887 -1.27284
rclavicle 2.39473e-014 -1.19271e-015
rhumerus -30.6407 -8.44918 -77.9706
rradius 27.4203
rwrist -6.94985
rhand -18.958 1.542
rfingers 7.12502
rthumb 7.34569 -28.3105
lclavicle 2.39473e-014 -1.19271e-015
lhumerus -38.6106 15.3664 77.174
lradius 28.3658
lwrist 3.33439
lhand -14.6775 -4.03004
lfingers 7.12502
lthumb 11.4758 25.6359
rfemur 15.3337 0.0105322 23.324
rtibia 43.9848
rfoot 6.2461 -17.6125
rtoes -11.2114
lfemur -36.2836 0.631112 -14.2948
ltibia 43.8477
lfoot -1.46195 6.89714
ltoes -8.00338
530
root 1.86516 16.9823 22.3709 -0.673868 0.66335 -4.01577
lowerback 6.81099 2.32591 1.62237
upperback -0.509002 3.29469 1.38771
thorax -4.33572 1.61171 0.183156
lowerneck -28.8246 -0.594415 2.45942
upperneck 18.3711 -1.4472 -1.51572
head 10.5702 -0.678245 -1.1937
rclavicle -1.13478e-014 -2.48481e-016
rhumerus -31.2316 -8.48904 -77.7064
rradius 26.2691
rwrist -6.07674
rhand -18.8953 1.67957
rfingers 7.12502
rthumb 7.40624 -28.1708
lclavicle -1.13478e-014 -2.48481e-016
lhumerus -38.4226 14.9298 77.837
lradius 27.6891
lwrist 1.94185
lhand -13.5386 -4.56701
lfingers 7.12502
lthumb 12.574 25.0346
rfemur 13.6722 -0.166068 22.485
rtibia 46.5782
rfoot 9.36009 -17.2054
rtoes -7.45247
lfemur -35.2903 0.804215 -14.7559
ltibia 43.5041
lfoot -1.9661 7.34331
ltoes -7.98935
531
root 1.90541 17.0521 22.5599 -0.535954 0.215202 -3.61095
lowerback 6.61229 2.25424 1.1293
upperback -0.78256 3.16032 1.37443
thorax -4.53481 1.55521 0.460276
lowerneck -28.0752 -0.391676 2.78467
upperneck 18.5575 -1.28427 -1.50479
head 10.5134 -0.575975 -1.21099
rclavicle 2.37365e-014 1.55797e-014
rhumerus -31.8646 -8.1787 -77.7316
rradius 25.066
rwrist -4.93489
rhand -18.6715 1.71788
rfingers 7.12502
rthumb 7.6222 -28.1248
lclavicle 2.37365e-014 1.55797e-014
lhumerus -38.6977 14.5794 78.1797
lradius 27.3617
lwrist 0.808655
lhand -12.5261 -5.03638
lfingers 7.12502
lthumb 13.55 24.5027
rfemur 11.9124 -0.36742 21.6042
rtibia 49.1093
rfoot 12.1505 -17.0444
rtoes -4.148
lfemur -34.2628 0.921311 -15.2581
ltibia 42.9825
lfoot -2.39028 7.80664
ltoes -8.01591
